STARTFONT 2.1
COMMENT Copyright (C) 1990-1991 EWT Consulting
COMMENT Portions Copyright (C) 1994-1995 Cronyx Ltd.
COMMENT Changes Copyright (C) 1996-1997 by Andrey A. Chernov, Moscow, Russia.
COMMENT Modified by Serge Vakulenko, <vak@cronyx.ru>
COMMENT Changes 1999 by Serge Winitzki.
COMMENT This software may be used, modified, copied, distributed, and sold,
COMMENT in both source and binary form provided that the copyright
COMMENT and these terms are retained. Under no circumstances is the author
COMMENT responsible for the proper functioning of this software, nor does
COMMENT the author assume any responsibility for damages incurred with its use.
COMMENT $XFree86$
FONT -Cronyx-Courier-Medium-O-Normal--17-120-100-100-M-90-KOI8-R
SIZE 12 96 96
FONTBOUNDINGBOX 12 15 -1 -3
STARTPROPERTIES 21
DEFAULT_CHAR 32
FONT_ASCENT 13
FONT_DESCENT 3
SPACING "M"
FONTNAME_REGISTRY ""
FOUNDRY "Cronyx"
FAMILY_NAME "Courier"
WEIGHT_NAME "Medium"
SLANT "O"
SETWIDTH_NAME "Normal"
ADD_STYLE_NAME ""
AVERAGE_WIDTH 90
CHARSET_REGISTRY "KOI8"
CHARSET_ENCODING "R"
PIXEL_SIZE 17
POINT_SIZE 120
RESOLUTION_X 100
RESOLUTION_Y 100
COPYRIGHT "Copyright (C) 1990, 1991 EWT Consulting, Portions Copyright (C) 1994 Cronyx Ltd., Portions Copyright (C) 1996-1997 by Andrey A. Chernov, Moscow, Russia."
_XMBDFED_INFO "Edited with xmbdfed 4.3."
_XFREE86_GLYPH_RANGES "32_126 149 154 156_158 163 179 191_255"
ENDPROPERTIES
CHARS 167
STARTCHAR space
ENCODING 32
SWIDTH 562 0
DWIDTH 9 0
BBX 0 0 -1 0
BITMAP
ENDCHAR
STARTCHAR exclam
ENCODING 33
SWIDTH 562 0
DWIDTH 9 0
BBX 3 10 3 0
BITMAP
20
20
20
40
40
40
40
80
00
80
ENDCHAR
STARTCHAR quotedbl
ENCODING 34
SWIDTH 562 0
DWIDTH 9 0
BBX 5 4 3 6
BITMAP
48
90
90
90
ENDCHAR
STARTCHAR numbersign
ENCODING 35
SWIDTH 562 0
DWIDTH 9 0
BBX 10 10 0 0
BITMAP
0480
0480
0480
3F80
1200
1200
7F00
4800
4800
4800
ENDCHAR
STARTCHAR dollar
ENCODING 36
SWIDTH 562 0
DWIDTH 9 0
BBX 10 12 0 -2
BITMAP
0200
1F00
2080
2000
2000
3E00
0100
0100
4200
7C00
1000
1000
ENDCHAR
STARTCHAR percent
ENCODING 37
SWIDTH 562 0
DWIDTH 9 0
BBX 10 10 0 0
BITMAP
1800
2440
1880
0300
0400
0800
1000
6600
8900
0600
ENDCHAR
STARTCHAR ampersand
ENCODING 38
SWIDTH 562 0
DWIDTH 9 0
BBX 10 10 0 0
BITMAP
0E00
1100
1000
2000
1000
2800
4480
8700
8600
7900
ENDCHAR
STARTCHAR quotesingle
ENCODING 39
SWIDTH 562 0
DWIDTH 9 0
BBX 2 4 4 6
BITMAP
40
80
80
80
ENDCHAR
STARTCHAR parenleft
ENCODING 40
SWIDTH 562 0
DWIDTH 9 0
BBX 6 13 3 -3
BITMAP
04
08
10
20
20
20
40
40
40
40
40
40
20
ENDCHAR
STARTCHAR parenright
ENCODING 41
SWIDTH 562 0
DWIDTH 9 0
BBX 6 13 2 -3
BITMAP
10
08
10
08
08
08
10
10
10
20
40
40
80
ENDCHAR
STARTCHAR asterisk
ENCODING 42
SWIDTH 562 0
DWIDTH 9 0
BBX 8 5 1 3
BITMAP
36
1C
FE
38
6C
ENDCHAR
STARTCHAR plus
ENCODING 43
SWIDTH 562 0
DWIDTH 9 0
BBX 8 7 1 1
BITMAP
08
08
08
7F
10
10
10
ENDCHAR
STARTCHAR comma
ENCODING 44
SWIDTH 562 0
DWIDTH 9 0
BBX 4 3 2 -1
BITMAP
70
60
C0
ENDCHAR
STARTCHAR hyphen
ENCODING 45
SWIDTH 562 0
DWIDTH 9 0
BBX 6 1 2 4
BITMAP
FC
ENDCHAR
STARTCHAR period
ENCODING 46
SWIDTH 562 0
DWIDTH 9 0
BBX 2 2 3 0
BITMAP
C0
C0
ENDCHAR
STARTCHAR slash
ENCODING 47
SWIDTH 562 0
DWIDTH 9 0
BBX 10 8 1 1
BITMAP
0040
0180
0200
0400
0800
3000
4000
8000
ENDCHAR
STARTCHAR zero
ENCODING 48
SWIDTH 562 0
DWIDTH 9 0
BBX 8 10 1 0
BITMAP
1E
21
21
42
42
42
42
84
84
78
ENDCHAR
STARTCHAR one
ENCODING 49
SWIDTH 562 0
DWIDTH 9 0
BBX 7 10 2 0
BITMAP
08
38
08
10
10
10
10
20
20
F8
ENDCHAR
STARTCHAR two
ENCODING 50
SWIDTH 562 0
DWIDTH 9 0
BBX 8 10 1 0
BITMAP
1E
21
01
02
04
08
10
60
80
FC
ENDCHAR
STARTCHAR three
ENCODING 51
SWIDTH 562 0
DWIDTH 9 0
BBX 8 10 1 0
BITMAP
1E
21
01
02
1C
02
02
04
84
78
ENDCHAR
STARTCHAR four
ENCODING 52
SWIDTH 562 0
DWIDTH 9 0
BBX 8 10 1 0
BITMAP
02
06
0A
14
24
44
7E
08
08
1C
ENDCHAR
STARTCHAR five
ENCODING 53
SWIDTH 562 0
DWIDTH 9 0
BBX 8 10 1 0
BITMAP
3F
20
20
40
7C
02
02
04
84
78
ENDCHAR
STARTCHAR six
ENCODING 54
SWIDTH 562 0
DWIDTH 9 0
BBX 8 10 1 0
BITMAP
0E
10
20
40
5C
62
42
84
84
78
ENDCHAR
STARTCHAR seven
ENCODING 55
SWIDTH 562 0
DWIDTH 9 0
BBX 8 10 1 0
BITMAP
3F
21
02
04
08
08
10
20
40
40
ENDCHAR
STARTCHAR eight
ENCODING 56
SWIDTH 562 0
DWIDTH 9 0
BBX 8 10 1 0
BITMAP
1E
21
21
42
3C
42
42
84
84
78
ENDCHAR
STARTCHAR nine
ENCODING 57
SWIDTH 562 0
DWIDTH 9 0
BBX 8 10 1 0
BITMAP
1E
21
21
42
46
3A
02
04
08
70
ENDCHAR
STARTCHAR colon
ENCODING 58
SWIDTH 562 0
DWIDTH 9 0
BBX 3 7 3 0
BITMAP
60
60
00
00
00
C0
C0
ENDCHAR
STARTCHAR semicolon
ENCODING 59
SWIDTH 562 0
DWIDTH 9 0
BBX 6 8 2 -1
BITMAP
18
30
00
00
00
70
60
C0
ENDCHAR
STARTCHAR less
ENCODING 60
SWIDTH 562 0
DWIDTH 9 0
BBX 7 9 1 0
BITMAP
02
04
18
20
40
20
20
10
08
ENDCHAR
STARTCHAR equal
ENCODING 61
SWIDTH 562 0
DWIDTH 9 0
BBX 6 3 2 3
BITMAP
FC
00
FC
ENDCHAR
STARTCHAR greater
ENCODING 62
SWIDTH 562 0
DWIDTH 9 0
BBX 7 9 1 0
BITMAP
20
10
10
08
04
08
30
40
80
ENDCHAR
STARTCHAR question
ENCODING 63
SWIDTH 562 0
DWIDTH 9 0
BBX 8 10 1 0
BITMAP
1E
21
01
02
04
08
10
20
00
20
ENDCHAR
STARTCHAR at
ENCODING 64
SWIDTH 562 0
DWIDTH 9 0
BBX 10 11 0 -1
BITMAP
0F00
1080
2040
2740
4A80
5280
5280
4D00
8000
4000
3E00
ENDCHAR
STARTCHAR A
ENCODING 65
SWIDTH 562 0
DWIDTH 9 0
BBX 11 10 -1 0
BITMAP
0E00
0200
0500
0A00
1100
1100
3F00
4100
4100
E380
ENDCHAR
STARTCHAR B
ENCODING 66
SWIDTH 562 0
DWIDTH 9 0
BBX 9 10 0 0
BITMAP
3F00
1080
1080
2100
3E00
2100
2100
4200
4200
FC00
ENDCHAR
STARTCHAR C
ENCODING 67
SWIDTH 562 0
DWIDTH 9 0
BBX 9 10 0 0
BITMAP
0E80
1180
2080
4100
4000
4000
4000
8000
4200
3C00
ENDCHAR
STARTCHAR D
ENCODING 68
SWIDTH 562 0
DWIDTH 9 0
BBX 9 10 0 0
BITMAP
3E00
1100
1080
2100
2100
2100
2100
4200
4400
F800
ENDCHAR
STARTCHAR E
ENCODING 69
SWIDTH 562 0
DWIDTH 9 0
BBX 9 10 0 0
BITMAP
3F80
1080
1000
2400
3C00
2400
2000
4000
4200
FE00
ENDCHAR
STARTCHAR F
ENCODING 70
SWIDTH 562 0
DWIDTH 9 0
BBX 9 10 0 0
BITMAP
3F80
1080
1000
2400
3C00
2400
2000
4000
4000
F000
ENDCHAR
STARTCHAR G
ENCODING 71
SWIDTH 562 0
DWIDTH 9 0
BBX 10 10 0 0
BITMAP
0E80
1180
2080
4100
4000
4780
4100
8200
4200
3C00
ENDCHAR
STARTCHAR H
ENCODING 72
SWIDTH 562 0
DWIDTH 9 0
BBX 11 10 -1 0
BITMAP
38E0
1040
1040
2080
3F80
2080
2080
4100
4100
E380
ENDCHAR
STARTCHAR I
ENCODING 73
SWIDTH 562 0
DWIDTH 9 0
BBX 7 10 1 0
BITMAP
3E
08
08
10
10
10
10
20
20
F8
ENDCHAR
STARTCHAR J
ENCODING 74
SWIDTH 562 0
DWIDTH 9 0
BBX 10 10 0 0
BITMAP
07C0
0100
0100
0200
0200
0200
0200
8400
8400
7800
ENDCHAR
STARTCHAR K
ENCODING 75
SWIDTH 562 0
DWIDTH 9 0
BBX 10 10 0 0
BITMAP
3B80
1100
1200
2400
2800
3800
2400
4400
4200
E300
ENDCHAR
STARTCHAR L
ENCODING 76
SWIDTH 562 0
DWIDTH 9 0
BBX 9 10 0 0
BITMAP
3C00
1000
1000
2000
2000
2000
2000
4000
4200
FE00
ENDCHAR
STARTCHAR M
ENCODING 77
SWIDTH 562 0
DWIDTH 9 0
BBX 11 10 -1 0
BITMAP
3060
1040
18C0
3180
2A80
2A80
2480
4900
4100
E380
ENDCHAR
STARTCHAR N
ENCODING 78
SWIDTH 562 0
DWIDTH 9 0
BBX 11 10 -1 0
BITMAP
31E0
1040
1840
2880
2880
2480
2280
4500
4300
F100
ENDCHAR
STARTCHAR O
ENCODING 79
SWIDTH 562 0
DWIDTH 9 0
BBX 9 10 0 0
BITMAP
0E00
1100
2080
4100
4100
4100
4100
8200
4400
3800
ENDCHAR
STARTCHAR P
ENCODING 80
SWIDTH 562 0
DWIDTH 9 0
BBX 9 10 0 0
BITMAP
3F00
1080
1080
2100
2100
3E00
2000
4000
4000
F000
ENDCHAR
STARTCHAR Q
ENCODING 81
SWIDTH 562 0
DWIDTH 9 0
BBX 10 12 0 -2
BITMAP
0700
1900
2080
2080
2080
4100
4100
4100
2200
3C00
1800
6600
ENDCHAR
STARTCHAR R
ENCODING 82
SWIDTH 562 0
DWIDTH 9 0
BBX 10 10 0 0
BITMAP
3F00
1080
1080
2100
2100
3E00
2400
4400
4200
E300
ENDCHAR
STARTCHAR S
ENCODING 83
SWIDTH 562 0
DWIDTH 9 0
BBX 9 10 0 0
BITMAP
1E80
2180
2080
4000
3800
0600
0100
8200
C200
BC00
ENDCHAR
STARTCHAR T
ENCODING 84
SWIDTH 562 0
DWIDTH 9 0
BBX 11 10 -1 0
BITMAP
3FE0
2220
0200
0400
0400
0400
0400
0800
0800
3E00
ENDCHAR
STARTCHAR U
ENCODING 85
SWIDTH 562 0
DWIDTH 9 0
BBX 11 10 -1 0
BITMAP
38E0
1040
1040
2080
2080
2080
2080
4100
6300
1C00
ENDCHAR
STARTCHAR V
ENCODING 86
SWIDTH 562 0
DWIDTH 9 0
BBX 11 10 -1 0
BITMAP
38E0
1040
1080
1100
1100
1100
0A00
1400
0800
0800
ENDCHAR
STARTCHAR W
ENCODING 87
SWIDTH 562 0
DWIDTH 9 0
BBX 11 10 -1 0
BITMAP
3060
2020
2220
4440
2A80
2A80
3300
2200
2200
2200
ENDCHAR
STARTCHAR X
ENCODING 88
SWIDTH 562 0
DWIDTH 9 0
BBX 11 10 -1 0
BITMAP
38E0
1040
0880
0B00
0400
0400
0A00
3200
4100
E380
ENDCHAR
STARTCHAR Y
ENCODING 89
SWIDTH 562 0
DWIDTH 9 0
BBX 11 10 -1 0
BITMAP
38E0
1040
0880
1100
0A00
0400
0400
0800
0800
3E00
ENDCHAR
STARTCHAR Z
ENCODING 90
SWIDTH 562 0
DWIDTH 9 0
BBX 9 10 0 0
BITMAP
3F80
2080
0100
0600
0800
0800
1000
6000
8200
FE00
ENDCHAR
STARTCHAR bracketleft
ENCODING 91
SWIDTH 562 0
DWIDTH 9 0
BBX 6 13 3 -3
BITMAP
1C
10
20
20
20
20
40
40
40
40
80
80
E0
ENDCHAR
STARTCHAR backslash
ENCODING 92
SWIDTH 562 0
DWIDTH 9 0
BBX 10 8 1 1
BITMAP
2000
2000
1000
0800
0400
0400
0200
0100
ENDCHAR
STARTCHAR bracketright
ENCODING 93
SWIDTH 562 0
DWIDTH 9 0
BBX 6 13 2 -3
BITMAP
1C
04
08
08
08
08
10
10
10
10
20
20
E0
ENDCHAR
STARTCHAR asciicircum
ENCODING 94
SWIDTH 562 0
DWIDTH 9 0
BBX 8 4 1 6
BITMAP
08
38
44
82
ENDCHAR
STARTCHAR underscore
ENCODING 95
SWIDTH 562 0
DWIDTH 9 0
BBX 9 1 -1 -2
BITMAP
FF80
ENDCHAR
STARTCHAR grave
ENCODING 96
SWIDTH 562 0
DWIDTH 9 0
BBX 2 2 4 8
BITMAP
80
40
ENDCHAR
STARTCHAR a
ENCODING 97
SWIDTH 562 0
DWIDTH 9 0
BBX 8 7 0 0
BITMAP
3C
02
3E
42
84
84
7A
ENDCHAR
STARTCHAR b
ENCODING 98
SWIDTH 562 0
DWIDTH 9 0
BBX 9 10 0 0
BITMAP
3000
1000
1000
2C00
3300
2100
2100
4200
6600
D800
ENDCHAR
STARTCHAR c
ENCODING 99
SWIDTH 562 0
DWIDTH 9 0
BBX 8 7 0 0
BITMAP
1D
63
40
40
80
C6
38
ENDCHAR
STARTCHAR d
ENCODING 100
SWIDTH 562 0
DWIDTH 9 0
BBX 9 10 0 0
BITMAP
0300
0100
0100
1A00
6600
4200
4200
8400
CC00
3600
ENDCHAR
STARTCHAR e
ENCODING 101
SWIDTH 562 0
DWIDTH 9 0
BBX 8 7 0 0
BITMAP
1C
63
41
7F
80
C6
38
ENDCHAR
STARTCHAR f
ENCODING 102
SWIDTH 562 0
DWIDTH 9 0
BBX 8 10 1 0
BITMAP
0E
11
10
20
78
20
20
40
40
F0
ENDCHAR
STARTCHAR g
ENCODING 103
SWIDTH 562 0
DWIDTH 9 0
BBX 9 10 0 -3
BITMAP
0D80
3300
2100
4200
6600
1A00
0200
8400
8400
7800
ENDCHAR
STARTCHAR h
ENCODING 104
SWIDTH 562 0
DWIDTH 9 0
BBX 9 10 0 0
BITMAP
3000
1000
1000
2C00
3200
2200
2200
4400
4400
EE00
ENDCHAR
STARTCHAR i
ENCODING 105
SWIDTH 562 0
DWIDTH 9 0
BBX 7 10 1 0
BITMAP
08
00
00
70
10
10
10
20
20
F8
ENDCHAR
STARTCHAR j
ENCODING 106
SWIDTH 562 0
DWIDTH 9 0
BBX 8 13 0 -3
BITMAP
01
00
00
0E
02
02
04
04
04
04
08
88
70
ENDCHAR
STARTCHAR k
ENCODING 107
SWIDTH 562 0
DWIDTH 9 0
BBX 9 10 0 0
BITMAP
3000
1000
1000
2700
2400
2800
3800
4800
4400
EE00
ENDCHAR
STARTCHAR l
ENCODING 108
SWIDTH 562 0
DWIDTH 9 0
BBX 7 10 1 0
BITMAP
38
08
08
10
10
10
10
20
20
F8
ENDCHAR
STARTCHAR m
ENCODING 109
SWIDTH 562 0
DWIDTH 9 0
BBX 10 7 -1 0
BITMAP
6D80
3680
2480
2480
4900
4900
ED80
ENDCHAR
STARTCHAR n
ENCODING 110
SWIDTH 562 0
DWIDTH 9 0
BBX 8 7 0 0
BITMAP
6C
32
22
22
44
44
EE
ENDCHAR
STARTCHAR o
ENCODING 111
SWIDTH 562 0
DWIDTH 9 0
BBX 8 7 0 0
BITMAP
1C
63
41
41
82
C6
38
ENDCHAR
STARTCHAR p
ENCODING 112
SWIDTH 562 0
DWIDTH 9 0
BBX 9 10 0 -3
BITMAP
3600
1980
1080
2100
2100
3300
2C00
4000
4000
F000
ENDCHAR
STARTCHAR q
ENCODING 113
SWIDTH 562 0
DWIDTH 9 0
BBX 9 10 0 -3
BITMAP
0D80
3300
2100
4200
4200
6600
1A00
0400
0400
1E00
ENDCHAR
STARTCHAR r
ENCODING 114
SWIDTH 562 0
DWIDTH 9 0
BBX 9 7 0 0
BITMAP
7700
1880
1000
1000
2000
2000
F800
ENDCHAR
STARTCHAR s
ENCODING 115
SWIDTH 562 0
DWIDTH 9 0
BBX 8 7 0 0
BITMAP
3E
41
40
3E
02
82
7C
ENDCHAR
STARTCHAR t
ENCODING 116
SWIDTH 562 0
DWIDTH 9 0
BBX 9 9 0 0
BITMAP
0800
0800
7E00
1000
1000
1000
2000
2200
1C00
ENDCHAR
STARTCHAR u
ENCODING 117
SWIDTH 562 0
DWIDTH 9 0
BBX 8 7 0 0
BITMAP
66
22
22
22
44
4C
36
ENDCHAR
STARTCHAR v
ENCODING 118
SWIDTH 562 0
DWIDTH 9 0
BBX 10 7 -1 0
BITMAP
71C0
2080
1100
1200
1400
1400
0800
ENDCHAR
STARTCHAR w
ENCODING 119
SWIDTH 562 0
DWIDTH 9 0
BBX 10 7 -1 0
BITMAP
75C0
2480
2A80
2A80
5500
2200
2200
ENDCHAR
STARTCHAR x
ENCODING 120
SWIDTH 562 0
DWIDTH 9 0
BBX 8 7 0 0
BITMAP
77
22
14
10
28
44
EE
ENDCHAR
STARTCHAR y
ENCODING 121
SWIDTH 562 0
DWIDTH 9 0
BBX 11 10 -1 -3
BITMAP
38E0
1040
0880
1100
0A00
0A00
0400
0800
1000
6000
ENDCHAR
STARTCHAR z
ENCODING 122
SWIDTH 562 0
DWIDTH 9 0
BBX 8 7 0 0
BITMAP
7F
42
04
08
30
42
FE
ENDCHAR
STARTCHAR braceleft
ENCODING 123
SWIDTH 562 0
DWIDTH 9 0
BBX 8 13 1 -3
BITMAP
03
04
08
08
08
10
60
10
10
10
20
20
18
ENDCHAR
STARTCHAR bar
ENCODING 124
SWIDTH 562 0
DWIDTH 9 0
BBX 4 13 3 -3
BITMAP
10
10
20
20
20
20
40
40
40
40
80
80
80
ENDCHAR
STARTCHAR braceright
ENCODING 125
SWIDTH 562 0
DWIDTH 9 0
BBX 8 13 2 -3
BITMAP
18
04
08
08
08
08
0C
10
10
10
20
20
C0
ENDCHAR
STARTCHAR asciitilde
ENCODING 126
SWIDTH 562 0
DWIDTH 9 0
BBX 7 3 1 7
BITMAP
62
92
8C
ENDCHAR
STARTCHAR bullet
ENCODING 149
SWIDTH 562 0
DWIDTH 9 0
BBX 6 4 2 3
BITMAP
38
F8
F8
70
ENDCHAR
STARTCHAR space
ENCODING 154
SWIDTH 562 0
DWIDTH 9 0
BBX 0 0 -1 0
BITMAP
ENDCHAR
STARTCHAR degree
ENCODING 156
SWIDTH 562 0
DWIDTH 9 0
BBX 5 4 3 6
BITMAP
30
50
90
60
ENDCHAR
STARTCHAR twosuperior
ENCODING 157
SWIDTH 562 0
DWIDTH 9 0
BBX 5 6 3 4
BITMAP
30
48
10
20
40
F0
ENDCHAR
STARTCHAR periodcentered
ENCODING 158
SWIDTH 562 0
DWIDTH 9 0
BBX 2 2 3 3
BITMAP
C0
C0
ENDCHAR
STARTCHAR afii10071
ENCODING 163
SWIDTH 562 0
DWIDTH 9 0
BBX 9 9 0 0
BITMAP
1B00
0000
1C00
6300
4100
7F00
8000
C600
3800
ENDCHAR
STARTCHAR afii10023
ENCODING 179
SWIDTH 562 0
DWIDTH 9 0
BBX 10 12 0 0
BITMAP
0D80
0000
3F80
1080
1000
2400
3C00
2400
2000
4000
4200
FE00
ENDCHAR
STARTCHAR copyright
ENCODING 191
SWIDTH 562 0
DWIDTH 9 0
BBX 10 10 1 1
BITMAP
0F00
1080
2640
4A80
5080
5080
5280
9D00
4200
3C00
ENDCHAR
STARTCHAR afii10096
ENCODING 192
SWIDTH 562 0
DWIDTH 9 0
BBX 10 7 -1 0
BITMAP
7380
2440
2440
3C40
4880
4880
E700
ENDCHAR
STARTCHAR afii10065
ENCODING 193
SWIDTH 562 0
DWIDTH 9 0
BBX 8 7 0 0
BITMAP
3C
02
3E
42
84
84
7A
ENDCHAR
STARTCHAR afii10066
ENCODING 194
SWIDTH 562 0
DWIDTH 9 0
BBX 8 10 1 0
BITMAP
03
1C
20
5C
62
42
42
84
84
78
ENDCHAR
STARTCHAR afii10088
ENCODING 195
SWIDTH 562 0
DWIDTH 9 0
BBX 10 9 0 -2
BITMAP
39C0
1080
2100
2100
2100
2100
FF00
0100
0100
ENDCHAR
STARTCHAR afii10069
ENCODING 196
SWIDTH 562 0
DWIDTH 9 0
BBX 10 9 0 -2
BITMAP
1FC0
0880
1100
1100
1100
2100
FF00
8100
8100
ENDCHAR
STARTCHAR afii10070
ENCODING 197
SWIDTH 562 0
DWIDTH 9 0
BBX 8 7 0 0
BITMAP
1C
63
41
7F
80
C6
38
ENDCHAR
STARTCHAR afii10086
ENCODING 198
SWIDTH 562 0
DWIDTH 9 0
BBX 10 12 0 -3
BITMAP
0700
0400
1F00
2480
2480
4900
4900
4900
3E00
1000
1000
3800
ENDCHAR
STARTCHAR afii10068
ENCODING 199
SWIDTH 562 0
DWIDTH 9 0
BBX 8 7 0 0
BITMAP
7F
21
20
20
40
40
E0
ENDCHAR
STARTCHAR afii10087
ENCODING 200
SWIDTH 562 0
DWIDTH 9 0
BBX 8 7 0 0
BITMAP
77
22
14
10
28
44
EE
ENDCHAR
STARTCHAR afii10074
ENCODING 201
SWIDTH 562 0
DWIDTH 9 0
BBX 9 7 0 0
BITMAP
7380
2100
2300
2500
5A00
6200
E700
ENDCHAR
STARTCHAR afii10075
ENCODING 202
SWIDTH 562 0
DWIDTH 9 0
BBX 10 10 0 0
BITMAP
0900
0600
0000
7380
2100
2300
2500
5A00
6200
E700
ENDCHAR
STARTCHAR afii10076
ENCODING 203
SWIDTH 562 0
DWIDTH 9 0
BBX 8 7 0 0
BITMAP
77
24
28
38
48
44
EE
ENDCHAR
STARTCHAR afii10077
ENCODING 204
SWIDTH 562 0
DWIDTH 9 0
BBX 9 7 0 0
BITMAP
3F80
1100
1100
1100
2200
A200
C700
ENDCHAR
STARTCHAR afii10078
ENCODING 205
SWIDTH 562 0
DWIDTH 9 0
BBX 10 7 -1 0
BITMAP
60C0
3180
2A80
2480
4900
4100
E380
ENDCHAR
STARTCHAR afii10079
ENCODING 206
SWIDTH 562 0
DWIDTH 9 0
BBX 9 7 0 0
BITMAP
7380
2100
2100
3F00
4200
4200
E700
ENDCHAR
STARTCHAR afii10080
ENCODING 207
SWIDTH 562 0
DWIDTH 9 0
BBX 8 7 0 0
BITMAP
1C
63
41
41
82
C6
38
ENDCHAR
STARTCHAR afii10081
ENCODING 208
SWIDTH 562 0
DWIDTH 9 0
BBX 9 7 0 0
BITMAP
7F80
2100
2100
2100
4200
4200
E700
ENDCHAR
STARTCHAR afii10097
ENCODING 209
SWIDTH 562 0
DWIDTH 9 0
BBX 9 7 0 0
BITMAP
1F80
2100
2100
1F00
2200
4200
C700
ENDCHAR
STARTCHAR afii10082
ENCODING 210
SWIDTH 562 0
DWIDTH 9 0
BBX 9 10 0 -3
BITMAP
3600
1900
1080
2100
2100
3200
2C00
4000
4000
F000
ENDCHAR
STARTCHAR afii10083
ENCODING 211
SWIDTH 562 0
DWIDTH 9 0
BBX 8 7 0 0
BITMAP
1D
63
40
40
80
C6
38
ENDCHAR
STARTCHAR afii10084
ENCODING 212
SWIDTH 562 0
DWIDTH 9 0
BBX 8 7 0 0
BITMAP
7F
49
08
08
10
10
38
ENDCHAR
STARTCHAR afii10085
ENCODING 213
SWIDTH 562 0
DWIDTH 9 0
BBX 11 10 -1 -3
BITMAP
38E0
1040
0880
1100
0A00
0A00
0400
0800
1000
6000
ENDCHAR
STARTCHAR afii10072
ENCODING 214
SWIDTH 562 0
DWIDTH 9 0
BBX 10 7 -1 0
BITMAP
64C0
2480
1500
1E00
2A00
4900
C980
ENDCHAR
STARTCHAR afii10067
ENCODING 215
SWIDTH 562 0
DWIDTH 9 0
BBX 8 7 0 0
BITMAP
7E
21
21
3E
42
42
FC
ENDCHAR
STARTCHAR afii10094
ENCODING 216
SWIDTH 562 0
DWIDTH 9 0
BBX 8 7 0 0
BITMAP
70
20
3E
21
42
42
FC
ENDCHAR
STARTCHAR afii10093
ENCODING 217
SWIDTH 562 0
DWIDTH 9 0
BBX 10 7 -1 0
BITMAP
71C0
2080
3C80
2280
4500
4500
FB80
ENDCHAR
STARTCHAR afii10073
ENCODING 218
SWIDTH 562 0
DWIDTH 9 0
BBX 8 7 0 0
BITMAP
7E
41
01
1E
02
82
7C
ENDCHAR
STARTCHAR afii10090
ENCODING 219
SWIDTH 562 0
DWIDTH 9 0
BBX 10 7 -1 0
BITMAP
75C0
2480
2480
2480
4900
4900
FF80
ENDCHAR
STARTCHAR afii10095
ENCODING 220
SWIDTH 562 0
DWIDTH 9 0
BBX 8 7 0 0
BITMAP
3E
41
01
0F
02
82
7C
ENDCHAR
STARTCHAR afii10091
ENCODING 221
SWIDTH 562 0
DWIDTH 9 0
BBX 11 9 -1 -2
BITMAP
3AE0
1240
2480
2480
2480
2480
FF80
0080
0080
ENDCHAR
STARTCHAR afii10089
ENCODING 222
SWIDTH 562 0
DWIDTH 9 0
BBX 9 7 0 0
BITMAP
7380
2100
2100
2300
3E00
0200
0700
ENDCHAR
STARTCHAR afii10092
ENCODING 223
SWIDTH 562 0
DWIDTH 9 0
BBX 8 7 0 0
BITMAP
78
50
1E
11
22
22
7C
ENDCHAR
STARTCHAR afii10048
ENCODING 224
SWIDTH 562 0
DWIDTH 9 0
BBX 11 10 -1 0
BITMAP
39C0
1220
1220
2440
3C40
2440
2440
4880
4880
E700
ENDCHAR
STARTCHAR afii10017
ENCODING 225
SWIDTH 562 0
DWIDTH 9 0
BBX 11 10 -1 0
BITMAP
0200
0200
0500
0A00
1100
1100
3F00
4100
4100
E380
ENDCHAR
STARTCHAR afii10018
ENCODING 226
SWIDTH 562 0
DWIDTH 9 0
BBX 9 10 0 0
BITMAP
3F80
1080
1000
2000
3E00
2100
2100
4200
4200
FC00
ENDCHAR
STARTCHAR afii10040
ENCODING 227
SWIDTH 562 0
DWIDTH 9 0
BBX 12 12 -1 -2
BITMAP
1C70
1040
1040
1040
1040
2080
2080
2080
2080
FF80
0080
0080
ENDCHAR
STARTCHAR afii10021
ENCODING 228
SWIDTH 562 0
DWIDTH 9 0
BBX 11 12 0 -2
BITMAP
0FE0
0880
0880
0880
0880
1100
1100
1100
2100
FF00
8100
8100
ENDCHAR
STARTCHAR afii10022
ENCODING 229
SWIDTH 562 0
DWIDTH 9 0
BBX 9 10 0 0
BITMAP
3F80
1080
1000
2400
3C00
2400
2000
4000
4200
FE00
ENDCHAR
STARTCHAR afii10038
ENCODING 230
SWIDTH 562 0
DWIDTH 9 0
BBX 12 12 -1 0
BITMAP
0380
0200
0F80
1240
2220
4440
4440
4440
2480
3F00
0800
1C00
ENDCHAR
STARTCHAR afii10020
ENCODING 231
SWIDTH 562 0
DWIDTH 9 0
BBX 9 10 0 0
BITMAP
3F80
1080
1000
2000
2000
2000
2000
4000
4000
E000
ENDCHAR
STARTCHAR afii10039
ENCODING 232
SWIDTH 562 0
DWIDTH 9 0
BBX 11 10 -1 0
BITMAP
38E0
1040
0880
0B00
0400
0400
0A00
3200
4100
E380
ENDCHAR
STARTCHAR afii10026
ENCODING 233
SWIDTH 562 0
DWIDTH 9 0
BBX 11 10 -1 0
BITMAP
38E0
1040
1040
2180
2280
2480
2880
7100
4100
E380
ENDCHAR
STARTCHAR afii10027
ENCODING 234
SWIDTH 562 0
DWIDTH 9 0
BBX 12 12 -1 0
BITMAP
06C0
0700
38E0
1040
1040
2180
2280
2480
2880
7100
4100
E380
ENDCHAR
STARTCHAR afii10028
ENCODING 235
SWIDTH 562 0
DWIDTH 9 0
BBX 10 10 0 0
BITMAP
3B80
1100
1200
2400
2800
3800
2400
4400
4200
E300
ENDCHAR
STARTCHAR afii10029
ENCODING 236
SWIDTH 562 0
DWIDTH 9 0
BBX 11 10 -1 0
BITMAP
1FE0
0840
0840
1080
1080
1080
1080
2100
A100
C380
ENDCHAR
STARTCHAR afii10030
ENCODING 237
SWIDTH 562 0
DWIDTH 9 0
BBX 11 10 -1 0
BITMAP
3060
1040
18C0
3180
2A80
2A80
2480
4900
4100
E380
ENDCHAR
STARTCHAR afii10031
ENCODING 238
SWIDTH 562 0
DWIDTH 9 0
BBX 11 10 -1 0
BITMAP
38E0
1040
1040
2080
3F80
2080
2080
4100
4100
E380
ENDCHAR
STARTCHAR afii10032
ENCODING 239
SWIDTH 562 0
DWIDTH 9 0
BBX 9 10 0 0
BITMAP
0E00
1100
2080
4100
4100
4100
4100
8200
4400
3800
ENDCHAR
STARTCHAR afii10033
ENCODING 240
SWIDTH 562 0
DWIDTH 9 0
BBX 11 10 -1 0
BITMAP
3FE0
1040
1040
2080
2080
2080
2080
4100
4100
E380
ENDCHAR
STARTCHAR afii10049
ENCODING 241
SWIDTH 562 0
DWIDTH 9 0
BBX 10 10 0 0
BITMAP
0FC0
1080
1080
2100
2100
1F00
1100
2200
4200
C700
ENDCHAR
STARTCHAR afii10034
ENCODING 242
SWIDTH 562 0
DWIDTH 9 0
BBX 9 10 0 0
BITMAP
3F00
1080
1080
2100
2100
3E00
2000
4000
4000
F000
ENDCHAR
STARTCHAR afii10035
ENCODING 243
SWIDTH 562 0
DWIDTH 9 0
BBX 9 10 0 0
BITMAP
0E80
1180
2080
4100
4000
4000
4000
8000
4200
3C00
ENDCHAR
STARTCHAR afii10036
ENCODING 244
SWIDTH 562 0
DWIDTH 9 0
BBX 11 10 -1 0
BITMAP
3FE0
2220
0200
0400
0400
0400
0400
0800
0800
3E00
ENDCHAR
STARTCHAR afii10037
ENCODING 245
SWIDTH 562 0
DWIDTH 9 0
BBX 11 10 -1 0
BITMAP
38E0
1040
1080
1100
1100
0A00
0C00
0800
4800
3000
ENDCHAR
STARTCHAR afii10024
ENCODING 246
SWIDTH 562 0
DWIDTH 9 0
BBX 11 10 -1 0
BITMAP
3260
1240
1280
1500
0E00
1500
2500
4900
4900
C980
ENDCHAR
STARTCHAR afii10019
ENCODING 247
SWIDTH 562 0
DWIDTH 9 0
BBX 9 10 0 0
BITMAP
3F00
1080
1080
2100
3E00
2100
2100
4200
4200
FC00
ENDCHAR
STARTCHAR afii10046
ENCODING 248
SWIDTH 562 0
DWIDTH 9 0
BBX 9 10 0 0
BITMAP
3800
1000
1000
2000
3E00
2100
2100
4200
4200
FC00
ENDCHAR
STARTCHAR afii10045
ENCODING 249
SWIDTH 562 0
DWIDTH 9 0
BBX 11 10 -1 0
BITMAP
38E0
1040
1040
2080
3C80
2280
2280
4500
4500
FB80
ENDCHAR
STARTCHAR afii10025
ENCODING 250
SWIDTH 562 0
DWIDTH 9 0
BBX 9 10 0 0
BITMAP
2F00
3080
2080
0100
1E00
0100
0100
0200
8200
7C00
ENDCHAR
STARTCHAR afii10042
ENCODING 251
SWIDTH 562 0
DWIDTH 9 0
BBX 11 10 -1 0
BITMAP
3AE0
1240
1240
2480
2480
2480
2480
4900
4900
FF80
ENDCHAR
STARTCHAR afii10047
ENCODING 252
SWIDTH 562 0
DWIDTH 9 0
BBX 9 10 0 0
BITMAP
0E00
1100
2080
0100
1F00
0100
0100
8200
4400
3800
ENDCHAR
STARTCHAR afii10043
ENCODING 253
SWIDTH 562 0
DWIDTH 9 0
BBX 12 12 -1 -2
BITMAP
1D70
1240
1240
1240
1240
2480
2480
2480
2480
FF80
0080
0080
ENDCHAR
STARTCHAR afii10041
ENCODING 254
SWIDTH 562 0
DWIDTH 9 0
BBX 11 10 -1 0
BITMAP
38E0
1040
1040
2080
2080
2180
1E80
0100
0100
0380
ENDCHAR
STARTCHAR afii10044
ENCODING 255
SWIDTH 562 0
DWIDTH 9 0
BBX 9 10 0 0
BITMAP
3C00
2800
2800
1000
1E00
1100
1100
2200
2200
7C00
ENDCHAR
ENDFONT
